<svg xmlns="http://www.w3.org/2000/svg" width="652.667" height="153.333" viewBox="0 0 652.667 153.333"><linearGradient id="a" gradientUnits="userSpaceOnUse" x1="531.534" y1="133.999" x2="531.534" y2="27.314"><stop offset="0" stop-color="#12705A"/><stop offset="1" stop-color="#1BBC9B"/></linearGradient><path fill-rule="evenodd" clip-rule="evenodd" fill="url(#a)" d="M569.633 66.257c-.986-11.184-5.676-20.46-14.662-27.265-3.617-2.74-8.472-2.254-10.33.734-2.243 3.6-1.426 6.995 1.586 9.9 1.318 1.272 2.738 2.46 3.913 3.853 4.847 5.747 7.314 12.17 5.6 19.828-2.235 9.982-11.27 18.25-21.565 19.57-9.637 1.235-19.763-4.62-24.35-14.082-4.526-9.33-2.492-19.533 5.46-27.38.83-.82 1.718-1.584 2.498-2.448 2.554-2.824 3.003-6.133.867-9.147-2.24-3.157-5.604-3.134-8.984-1.66-2.188.954-3.88 2.56-5.515 4.222-12.046 12.25-14.165 30.372-5.348 45.58 8.375 14.445 26.35 21.445 43.27 16.847 16.607-4.512 27.594-18.862 27.57-36.057 0-.832.063-1.67-.01-2.496z"/><linearGradient id="b" gradientUnits="userSpaceOnUse" x1="531.227" y1="133.999" x2="531.227" y2="27.314"><stop offset="0" stop-color="#12705A"/><stop offset="1" stop-color="#1BBC9B"/></linearGradient><path fill-rule="evenodd" clip-rule="evenodd" fill="url(#b)" d="M532.646 75.994c.332.02.664.035.996.05 8.073-.12 9.364-1.65 8.242-9.52-.798-5.588-1.488-11.19-2.21-16.79-1.08-8.4-2.173-16.8-3.202-25.207-.387-3.156-2.32-5.926-4.982-6.042-2.81-.123-4.71 2.643-4.814 5.876-.01.33-.104.657-.15.986-1.773 12.148-3.497 24.303-5.33 36.442-2.014 13.355-2.057 13.348 11.45 14.206z"/><linearGradient id="c" gradientUnits="userSpaceOnUse" x1="531.045" y1="133.999" x2="531.045" y2="27.314"><stop offset="0" stop-color="#12705A"/><stop offset="1" stop-color="#1BBC9B"/></linearGradient><path fill-rule="evenodd" clip-rule="evenodd" fill="url(#c)" d="M506.693 109.258c8.02 13.52 15.667 25.88 24.766 38.05 8.848-12.784 17.198-24.928 23.937-38.244-15.98 8.458-31.874 8.48-48.704.194z"/><g fill="#FFF"><path d="M6.832 67.793v-54.34c.05-1.767.833-3.406 2.346-4.92 1.463-1.412 3-2.12 4.617-2.12h1.438c.757.052 1.514.228 2.27.53.96.403 1.767.982 2.423 1.738.655.758 1.198 1.603 1.627 2.534.428.932.644 1.928.644 2.986v22.905c3.936-2.66 7.883-4.454 11.845-5.384 3.96-.928 7.38-1.392 10.255-1.392 4.85 0 9.59.916 14.213 2.75 4.624 1.832 8.857 4.556 12.698 8.17v-.152c3.67 3.747 6.407 7.747 8.217 12S82.14 62.26 82.14 67.83c0 5.14-1.015 9.99-3.04 14.554-2.028 4.563-4.75 8.544-8.17 11.946-3.42 3.402-7.408 6.087-11.968 8.052-4.56 1.966-9.398 2.948-14.514 2.948-4.945 0-9.663-1.01-14.153-3.027-4.49-2.018-8.49-4.73-11.996-8.136-3.51-3.406-6.296-7.38-8.364-11.92-2.07-4.54-3.104-9.357-3.104-14.454zm15.363.038c0 3.095.592 6 1.778 8.712 1.185 2.712 2.813 5.083 4.882 7.11 2.068 2.03 4.44 3.64 7.114 4.832 2.673 1.19 5.498 1.787 8.476 1.787 2.977 0 5.84-.595 8.59-1.786 2.75-1.192 5.134-2.802 7.152-4.83 2.018-2.03 3.62-4.387 4.806-7.075 1.185-2.69 1.78-5.605 1.78-8.75 0-2.99-.595-5.868-1.78-8.633-1.186-2.764-2.788-5.146-4.806-7.15-2.02-2.003-4.39-3.612-7.114-4.83-2.725-1.217-5.6-1.826-8.628-1.826-2.978 0-5.803.635-8.477 1.902-2.676 1.268-5.047 2.967-7.115 5.097-2.07 2.13-3.697 4.54-4.882 7.226-1.185 2.688-1.778 5.426-1.778 8.215zM84.635 67.83c0-2.676.276-5.25.832-7.727.556-2.475 1.363-4.898 2.426-7.273 2.98-6.717 7.524-12.146 13.636-16.287 6.11-4.142 13.03-6.213 20.758-6.213h2.19c.654 0 1.386.05 2.19.15 4.64.506 9 1.843 13.083 4.012 4.083 2.17 7.587 4.933 10.51 8.287 2.924 3.355 5.243 7.178 6.957 11.466 1.714 4.29 2.57 8.805 2.57 13.547v29.97c0 2.07-.782 3.85-2.346 5.337-1.563 1.488-3.304 2.232-5.22 2.232-.708 0-1.515-.05-2.423-.15-.908-.098-1.767-.386-2.573-.86s-1.55-1.112-2.23-1.91c-.683-.8-1.073-1.924-1.174-3.374-.504.2-1.436.662-2.796 1.386-1.36.726-2.343 1.237-2.947 1.536-1.158.5-2.354.963-3.59 1.388s-2.505.836-3.813 1.235c-2.568.5-5.364.75-8.387.75-7.78 0-14.71-2.09-20.797-6.274-6.085-4.186-10.618-9.58-13.598-16.182-1.012-2.27-1.808-4.662-2.388-7.183-.58-2.52-.87-5.142-.87-7.864zm15.363 0c0 3.095.616 6 1.85 8.712 1.235 2.712 2.91 5.083 5.025 7.11 2.116 2.03 4.496 3.64 7.14 4.832 2.646 1.19 5.353 1.787 8.123 1.787 2.972 0 5.83-.57 8.575-1.71 2.746-1.142 5.125-2.727 7.14-4.756 2.016-2.028 3.615-4.386 4.8-7.074 1.183-2.687 1.774-5.653 1.774-8.9 0-2.89-.592-5.717-1.775-8.48s-2.81-5.147-4.875-7.15c-2.064-2.004-4.432-3.64-7.1-4.907-2.672-1.268-5.517-1.9-8.54-1.9-2.97 0-5.78.608-8.424 1.825-2.644 1.218-5 2.854-7.063 4.906-2.064 2.054-3.69 4.438-4.873 7.15-1.185 2.712-1.776 5.565-1.776 8.557zM164.404 97.764V67.34c.1-5.147 1.132-9.99 3.094-14.532s4.59-8.526 7.886-11.958c3.295-3.43 7.205-6.117 11.732-8.06 4.526-1.942 9.456-2.915 14.79-2.915 4.97 0 9.75.896 14.338 2.688s8.595 4.29 12.02 7.492c3.422 3.205 6.173 7.027 8.252 11.467 2.08 4.44 3.12 9.26 3.12 14.455V97.31c0 2.07-.754 3.822-2.257 5.26-1.505 1.438-3.3 2.208-5.39 2.31-2.09 0-3.898-.67-5.427-2.01-1.53-1.338-2.293-3.043-2.293-5.115V67.292c0-3.082-.568-5.974-1.706-8.677s-2.717-5.065-4.74-7.086c-2.02-2.02-4.395-3.626-7.125-4.813-2.73-1.188-5.71-1.78-8.945-1.78-2.982 0-5.8.543-8.454 1.63-2.653 1.084-4.978 2.613-6.974 4.583-1.996 1.97-3.59 4.257-4.776 6.858-1.188 2.602-1.78 5.394-1.78 8.373V97.3c0 2.072-.775 3.854-2.324 5.343-1.55 1.49-3.35 2.235-5.396 2.235s-3.835-.668-5.358-2.006c-1.526-1.336-2.288-3.04-2.288-5.108zM244.478 14.285c0-2.15.795-4.023 2.385-5.624 1.59-1.598 3.52-2.398 5.79-2.398 2.168 0 4.035.8 5.6 2.4 1.564 1.6 2.347 3.474 2.347 5.623 0 2.25-.783 4.162-2.346 5.736-1.565 1.576-3.433 2.362-5.602 2.362-2.27 0-4.2-.786-5.79-2.36-1.59-1.575-2.384-3.487-2.384-5.737zm0 82.797V38.807c0-2.27.795-4.175 2.385-5.715 1.59-1.538 3.52-2.31 5.79-2.31 2.067 0 3.91.772 5.524 2.31 1.614 1.54 2.422 3.443 2.422 5.715v58.275c0 2.373-.81 4.34-2.423 5.904-1.615 1.564-3.457 2.346-5.525 2.346-2.27 0-4.2-.77-5.79-2.31-1.59-1.537-2.384-3.518-2.384-5.94zM265.52 123.8c0-2.07.753-3.86 2.265-5.374 1.51-1.514 3.315-2.322 5.416-2.422h41.002c1.562 0 3.187-.38 4.874-1.136s3.123-1.867 4.307-3.33c1.184-1.464 1.9-3.18 2.153-5.146.05-.354.075-.707.075-1.06 0-1.665-.502-3.48-1.51-5.45-1.864.91-3.603 1.73-5.214 2.46-1.612.732-3.21 1.314-4.798 1.74-1.587.43-3.262.746-5.024.947-1.764.2-3.728.302-5.893.302-5.526 0-10.6-.935-15.213-2.803s-8.583-4.458-11.903-7.767c-3.322-3.308-5.908-7.26-7.76-11.856-1.852-4.596-2.775-9.646-2.775-15.152 0-5.04 1.038-9.83 3.117-14.365s4.855-8.505 8.33-11.907c3.473-3.402 7.466-6.11 11.98-8.128s9.254-3.024 14.225-3.024c5.14 0 9.99.984 14.554 2.95 4.563 1.965 8.52 4.65 11.87 8.052s6.01 7.372 7.977 11.908c1.965 4.536 2.95 9.375 2.95 14.516 0 6.823-1.868 13.672-5.602 20.545 3.734 4.946 5.602 10.473 5.602 16.58 0 3.53-.644 6.835-1.93 9.914-1.286 3.076-3.063 5.814-5.33 8.21-2.27 2.397-4.955 4.34-8.056 5.83-3.1 1.486-6.466 2.332-10.097 2.534h-42.756c-1.873 0-3.48-.745-4.822-2.232-1.344-1.49-2.013-3.27-2.013-5.337zm15.362-56.045c0 2.88.566 5.674 1.7 8.378s2.706 5.117 4.72 7.24c2.017 2.123 4.37 3.803 7.066 5.04 2.694 1.24 5.63 1.858 8.803 1.858 3.174 0 6.158-.618 8.954-1.856 2.795-1.238 5.175-2.894 7.14-4.965 1.965-2.073 3.514-4.45 4.646-7.13 1.133-2.677 1.7-5.533 1.7-8.565 0-2.98-.617-5.85-1.852-8.604-1.234-2.753-2.91-5.13-5.024-7.125s-4.52-3.6-7.215-4.813c-2.696-1.214-5.48-1.82-8.35-1.82s-5.655.633-8.35 1.896c-2.694 1.263-5.062 2.932-7.102 5.004-2.04 2.07-3.69 4.447-4.95 7.126-1.257 2.678-1.886 5.456-1.886 8.337zM345.44 98.218V13.074c.406-1.766 1.26-3.343 2.56-4.73s2.994-2.082 5.084-2.082c1.885 0 3.554.73 5.006 2.19s2.356 3.272 2.714 5.437v24.086c4.332-2.747 8.425-4.657 12.277-5.73s7.242-1.612 10.164-1.612c5.04 0 9.83.934 14.365 2.8 4.535 1.867 8.504 4.453 11.906 7.758s6.11 7.178 8.128 11.617c2.017 4.44 3.024 9.183 3.024 14.228v30.88c0 2.068-.744 3.847-2.232 5.335s-3.318 2.282-5.486 2.384c-1.97 0-3.646-.695-5.033-2.086-1.39-1.39-2.26-3.123-2.61-5.197v-30.35c0-2.984-.568-5.816-1.7-8.498-1.134-2.68-2.67-5.058-4.61-7.132s-4.28-3.705-7.026-4.895c-2.745-1.188-5.652-1.783-8.725-1.783-2.974 0-5.73.544-8.274 1.632s-4.82 2.58-6.837 4.476c-2.015 1.897-3.665 4.148-4.95 6.754s-2.076 5.4-2.378 8.383v30.957c0 2.074-.74 3.857-2.218 5.35-1.478 1.493-3.362 2.29-5.655 2.39-1.784 0-3.35-.718-4.7-2.156-1.353-1.44-2.284-3.193-2.792-5.262zM424 67.036V14.512c0-2.068.736-3.985 2.21-5.752 1.476-1.766 3.388-2.648 5.737-2.648 2.25 0 4.124.813 5.623 2.438 1.5 1.626 2.35 3.633 2.55 6.02v14.02h35.924c2.176 0 3.986.802 5.43 2.4 1.442 1.6 2.164 3.424 2.164 5.472 0 2.05-.77 3.886-2.316 5.51-1.544 1.626-3.304 2.437-5.277 2.437H440.12v22.554c0 2.967.567 5.82 1.703 8.562 1.135 2.74 2.71 5.142 4.73 7.203 2.017 2.06 4.39 3.707 7.113 4.94s5.65 1.847 8.78 1.847c3.53 0 6.51-.49 8.93-1.47 2.423-.98 4.542-2.352 6.358-4.11h-.152c1.514-1.408 3.355-2.113 5.525-2.113h.227c2.17 0 4.088.755 5.752 2.264 1.463 1.357 2.195 3.168 2.195 5.43 0 .816-.14 1.67-.415 2.56-.278.893-.77 1.67-1.477 2.332h.152c-3.633 3.566-7.595 6.28-11.883 8.14-4.29 1.857-8.957 2.787-14.002 2.787-5.35 0-10.432-.908-15.25-2.725s-8.992-4.4-12.52-7.758c-3.526-3.354-6.364-7.38-8.515-12.07-2.146-4.698-3.27-9.945-3.37-15.748z"/></g><g><path fill="#FFF" d="M573.013 97.643V67.218c.1-5.146 1.132-9.99 3.094-14.53s4.59-8.527 7.885-11.96c3.295-3.43 7.205-6.116 11.732-8.06 4.527-1.94 9.457-2.914 14.79-2.914 4.97 0 9.75.896 14.34 2.688 4.587 1.79 8.593 4.29 12.017 7.492 3.425 3.205 6.175 7.027 8.255 11.467 2.078 4.44 3.12 9.26 3.12 14.456V97.19c0 2.068-.755 3.82-2.257 5.26-1.504 1.437-3.3 2.207-5.39 2.308-2.09 0-3.897-.67-5.427-2.008s-2.292-3.044-2.292-5.116V67.17c0-3.08-.568-5.973-1.705-8.676-1.14-2.703-2.717-5.065-4.74-7.086-2.02-2.02-4.396-3.625-7.125-4.812-2.73-1.188-5.71-1.78-8.945-1.78-2.982 0-5.8.543-8.453 1.63-2.654 1.084-4.98 2.613-6.976 4.583-1.996 1.97-3.59 4.256-4.776 6.857s-1.78 5.394-1.78 8.373v30.918c0 2.072-.774 3.854-2.324 5.343-1.55 1.49-3.348 2.236-5.396 2.236-2.05 0-3.836-.668-5.36-2.006-1.524-1.335-2.285-3.038-2.285-5.107z"/></g></svg>