<svg xmlns="http://www.w3.org/2000/svg" width="93" height="137.975" viewBox="0 0 93 137.975"><linearGradient id="a" gradientUnits="userSpaceOnUse" x1="47.867" y1="124.666" x2="47.867" y2="17.981"><stop offset="0" stop-color="#12705A"/><stop offset="1" stop-color="#1BBC9B"/></linearGradient><path fill-rule="evenodd" clip-rule="evenodd" fill="url(#a)" d="M85.966 56.924C84.98 45.74 80.29 36.464 71.304 29.66c-3.618-2.74-8.473-2.255-10.332.733-2.242 3.6-1.425 6.995 1.587 9.9 1.317 1.272 2.737 2.46 3.912 3.853 4.848 5.748 7.315 12.17 5.6 19.83-2.234 9.98-11.268 18.248-21.564 19.568-9.637 1.236-19.763-4.62-24.35-14.08-4.526-9.332-2.492-19.534 5.46-27.382.83-.818 1.718-1.583 2.498-2.447 2.554-2.824 3.003-6.133.867-9.147-2.24-3.158-5.604-3.135-8.984-1.66-2.19.953-3.882 2.56-5.516 4.22C8.437 45.3 6.318 63.422 15.134 78.63c8.376 14.446 26.35 21.446 43.272 16.848C75.012 90.966 86 76.616 85.976 59.42c0-.832.062-1.67-.01-2.496z"/><linearGradient id="b" gradientUnits="userSpaceOnUse" x1="47.56" y1="124.666" x2="47.56" y2="17.981"><stop offset="0" stop-color="#12705A"/><stop offset="1" stop-color="#1BBC9B"/></linearGradient><path fill-rule="evenodd" clip-rule="evenodd" fill="url(#b)" d="M48.98 66.66c.33.022.663.036.995.05 8.073-.12 9.364-1.65 8.242-9.52C57.42 51.604 56.73 46 56.01 40.403c-1.08-8.4-2.175-16.8-3.204-25.208-.387-3.156-2.32-5.926-4.982-6.042-2.81-.123-4.71 2.643-4.814 5.876-.01.33-.104.655-.15.984-1.773 12.148-3.497 24.303-5.33 36.442-2.015 13.354-2.058 13.347 11.45 14.205z"/><linearGradient id="c" gradientUnits="userSpaceOnUse" x1="47.378" y1="124.666" x2="47.378" y2="17.981"><stop offset="0" stop-color="#12705A"/><stop offset="1" stop-color="#1BBC9B"/></linearGradient><path fill-rule="evenodd" clip-rule="evenodd" fill="url(#c)" d="M23.026 99.925c8.02 13.52 15.667 25.88 24.766 38.05 8.85-12.784 17.2-24.928 23.938-38.244-15.98 8.46-31.874 8.48-48.704.195z"/></svg>