<svg xmlns="http://www.w3.org/2000/svg" width="204" height="254" viewBox="0 0 204 254"><path fill-rule="evenodd" clip-rule="evenodd" fill="#1bbc9b" d="M11.975 58.966c-.888 4.522-1.238 9.143-2.488 13.6V69.16c.485-2.543.957-5.09 1.462-7.63.18-.91.192-1.906 1.025-2.564zM31.117 135.317c5.42 3.504 10.5 6.465 16.02 8.588.227.087.443.237.676.27 5.082.688 7.304 4.162 9.32 8.507 6.025 12.976 14.25 24.58 23.325 35.6 8.302 10.08 17.338 19.45 27.055 28.172 2.627 2.357 2.588 2.387 5.296.09 11.14-9.45 21.324-19.83 30.366-31.305 1.324-1.682 2.074-1.773 3.59-.175 3.23 3.408 6.68 6.612 10.102 9.832.943.888 1.075 1.48.234 2.576-11.677 15.246-24.396 29.538-38.57 42.518-2.325 2.13-4.57 4.343-6.983 6.385-1.147.968-1.73.882-2.794-.072-9.29-8.327-17.917-17.305-26.19-26.623-8.14-9.17-15.85-18.69-22.917-28.728-9.15-12.99-17.292-26.545-23.45-41.227-1.905-4.537-3.653-9.134-5.083-14.408zM188.528 169.806c-.776 9.398-5.74 16.052-14.495 18.67-6.727 2.01-12.537-.155-17.184-4.5-10.585-9.895-20.85-20.148-30.954-30.538-5.286-5.435-7.033-12.11-4.15-19.476 2.8-7.15 8.295-11.032 15.727-12.072 5.646-.79 10.672 1.267 14.65 5.093 10.334 9.933 20.483 20.06 30.6 30.212 3.595 3.606 5.378 8.162 5.805 12.61zM133.076 27.605c5.476 1.233 10.028 3.297 14.478 5.518 9.1 4.542 17.09 10.62 23.993 18.108 9.002 9.763 15.288 21.05 19.047 33.766 2.226 7.53 3.28 15.323 3.093 23.067-.173 7.152-.905 14.353-2.715 21.426-1.31 5.123-2.763 10.183-4.363 15.213-.56 1.757-1.114 2.402-2.744.663-3.6-3.842-7.39-7.51-11.15-11.197-1.015-.994-1.34-1.853-.99-3.388 2.84-12.375 3.23-24.783.53-37.285-2.826-13.1-8.65-24.472-18.414-33.74-.41-.392-.76-.894-1.238-1.16-4.99-2.762-7.247-7.313-9.016-12.523-2.035-5.996-5.374-11.414-9.268-16.445-.386-.5-.67-1.08-1.244-2.025z"/><path fill-rule="evenodd" clip-rule="evenodd" fill="#1bbc9b" d="M137.232 54.864c-9.998-30.44-43.512-49.306-73.345-43.166-14.18 2.918-26.352 9.17-36.34 19.597-7.542 7.873-12.414 17.303-15.572 27.67-1.49 4.412-1.62 9.073-2.488 13.6v6.81c.62.815.697 1.804.792 2.755.59 5.917 2.044 11.612 4.296 17.11 11.566 28.245 40.438 45.006 70.504 40.274 17.828-2.806 32.675-11.35 43.195-26.323 12.568-17.887 15.87-37.28 8.957-58.326zm-62.537 62.48c-21.83-.258-42.445-18.59-41.424-42.084-1.02-21.697 18.436-41.6 41.824-41.69 23.62-.09 42.103 19.464 42.484 40.734.454 25.377-20.556 43.306-42.883 43.04z"/><path fill-rule="evenodd" clip-rule="evenodd" fill="#1bbc9b" d="M46.953 98.502c-5.458-6.49-8.173-13.592-8.74-21.58-.696-9.864 3.282-17.697 9.69-24.988 7.603-8.652 16.505-13.59 28.175-12.898 6.507.386 12.506 2.318 18.232 6.16C66.704 52.44 52.03 70.9 46.953 98.503z"/></svg>