<svg xmlns="http://www.w3.org/2000/svg" width="62.667" height="76" viewBox="0 0 62.667 76"><path fill-rule="evenodd" clip-rule="evenodd" fill="#F4831E" d="M55.335 26.744c-.407-3.22-1.55-6.257-3.295-9.012-2.394-3.778-5.54-6.746-9.538-8.846C38.915 7 35.1 6.138 31.11 6.08c-1.585-.025-3.197.25-4.786.583-2.356.497-4.575 1.318-6.67 2.463-3.02 1.652-5.566 3.876-7.667 6.62-3.287 4.296-4.844 9.17-5 14.617-.098 1.17.16 2.408.33 3.62.484 3.426 1.564 6.708 3.003 9.855 1.736 3.8 3.887 7.366 6.303 10.775 2.04 2.876 4.246 5.618 6.582 8.256 2.45 2.766 5.015 5.42 7.757 7.9.262.236.44.26.71.008 1.066-.995 2.173-1.946 3.225-2.957 3.04-2.92 5.88-6.02 8.51-9.32 2.55-3.2 4.872-6.55 6.864-10.123 1.586-2.84 2.914-5.803 3.845-8.923.673-2.255 1.078-4.56 1.365-6.913.24-1.976.095-3.9-.145-5.796zM48.598 39.38c-2.156 6.52-6.004 11.995-10.605 17-1.915 2.082-3.953 4.03-6.103 5.868-.438.374-.7.36-1.126-.017-4.134-3.68-7.853-7.736-11.043-12.258-2.187-3.102-4.062-6.39-5.362-9.975-1.076-2.965-1.742-6.02-1.646-9.186.143-4.702 1.36-9.065 4.418-12.764 2.537-3.07 5.796-4.96 9.686-5.772 3.158-.66 6.33-.672 9.456.09 5.323 1.294 9.21 4.44 11.598 9.392 1.35 2.802 1.96 5.78 2.04 8.877.085 2.993-.375 5.912-1.312 8.747z"/><path fill-rule="evenodd" clip-rule="evenodd" fill="#E77020" d="M36.863 34.618c.876.05 1.606.318 2.18.876 1.72 1.674 3.447 3.343 5.107 5.076.848.884 1.145 1.967.647 3.188-.51 1.253-1.486 1.87-2.76 1.996-.818.08-1.598-.24-2.19-.812-1.76-1.7-3.52-3.402-5.212-5.17-.902-.942-1.09-2.11-.516-3.333.558-1.19 1.562-1.7 2.743-1.822zM26.347 16.25c-5.845-.005-10.845 4.953-10.84 10.744.008 5.807 4.985 10.73 10.85 10.73 5.887-.002 10.81-4.894 10.808-10.74-.004-5.844-4.928-10.73-10.818-10.735zm-.034 17.63c-3.938-.005-6.897-2.987-6.898-6.955 0-3.862 3.023-6.837 6.95-6.836 3.905 0 6.953 3.003 6.953 6.85-.002 3.965-3.01 6.947-7.005 6.94z"/></svg>