<svg xmlns="http://www.w3.org/2000/svg" width="609.664" height="71.522" viewBox="0 0 609.664 71.522"><path fill="#0D0B0D" d="M-1.99 10.87c.082 7.48-.265 14.908-.447 22.38-.306 12.52-.845 25.644.237 38.272h615.857c-.93-14.076-.585-28.08-.323-42.167.173-9.31-.412-18.593.16-27.832-.743-.234-1.476-.503-2.184-.85-.576-.284-1.028-.632-1.4-1.013-.196.126-.403.243-.63.34h.384l-1.078.23c-.12.03-.24.057-.366.08L305.46 65.217 1.255 0h.605C1.208-.154.643-.423.17-.783c-.602-.208-1.214-.407-1.83-.605.235 4.055-.376 8.226-.33 12.258z"/></svg>