<?xml version="1.0" encoding="utf-8"?>
<!-- Generator: Adobe Illustrator 16.0.0, SVG Export Plug-In . SVG Version: 6.00 Build 0)  -->
<!DOCTYPE svg PUBLIC "-//W3C//DTD SVG 1.1//EN" "http://www.w3.org/Graphics/SVG/1.1/DTD/svg11.dtd">
<svg version="1.1" xmlns="http://www.w3.org/2000/svg" xmlns:xlink="http://www.w3.org/1999/xlink" x="0px" y="0px"
	 width="652.667px" height="153.333px" viewBox="0 0 652.667 153.333" enable-background="new 0 0 652.667 153.333"
	 xml:space="preserve">
<g id="Layer_1" display="none">
	<path display="inline" fill-rule="evenodd" clip-rule="evenodd" fill="#1BBB9A" d="M554.007,38.204
		c21.647,15.396,21.117,48.15-2.471,63.105c-15.352,9.732-36.106,7.305-48.989-5.894c-12.874-13.19-14.7-32.823-4.492-48.074
		c2.618-3.912,6.179-6.904,9.604-10.032c4.896-2.929,8.092-2.551,11.419,1.351c2.655,3.112,2.525,7.888-0.86,11.291
		c-4.953,4.979-8.886,10.353-9.217,17.667c-0.433,9.572,5.303,18.416,13.936,21.537c9.586,3.466,19.374,0.655,25.407-7.303
		c1.305-1.722,2.331-3.646,3.81-5.246c6.282-6.976,4.77-15.031,2.721-22.875c-0.892-3.415-2.589-6.732-4.516-9.874
		C548.12,40.208,549.447,38.394,554.007,38.204z"/>
	<path display="inline" fill-rule="evenodd" clip-rule="evenodd" fill="#1CBB9B" d="M531.754,17.304
		c3.632,3.074,4.854,7.053,5.378,11.735c1.533,13.703,3.433,27.368,5.404,41.017c0.533,3.691-0.426,5.127-4.219,6.053
		c-6.427,1.567-12.548,0.012-18.774-0.594c-2.988-0.291-1.823-2.615-1.593-4.263c2.318-16.607,4.68-33.208,7.03-49.812
		C527.3,20.163,528.264,16.664,531.754,17.304z"/>
	<path display="inline" fill-rule="evenodd" clip-rule="evenodd" fill="#1BBB9B" d="M503.842,104.738
		c15.827,9.136,31.854,9.848,48.401,2.605c0.86-0.377,1.936-1.957,3.02-0.569c1.035,1.325-0.254,2.611-0.85,3.618
		c-7.341,12.405-15.084,24.554-23.915,36.865C520.358,133.568,511.522,119.584,503.842,104.738z"/>
	<path display="inline" fill-rule="evenodd" clip-rule="evenodd" fill="#1CBB9B" d="M545.607,50.494
		c-4.656-2.732-4.753-6.721-3.087-11.197c3.578-2.993,7.295-4.529,11.485-1.093c-3.739,0.718-4.732,2.25-2.301,5.732
		c6.191,8.863,7.466,18.663,4.891,29.072c-0.524,2.12-1.815,3.446-3.744,4.274c2.967-8.227,1.237-15.764-3.36-22.879
		c1.26-3.977,0.466-7.428-2.667-10.609C545.556,46.063,547.817,48.718,545.607,50.494z"/>
	<path display="inline" fill-rule="evenodd" clip-rule="evenodd" fill="#1BBB9A" d="M545.607,50.494
		c0.446-2.219-0.757-4.204-0.893-6.33c-0.103-1.614,0.146-3.283,2.426-2.417c3.457,1.313,4.979,9.815,2.351,12.655
		C548.196,53.1,546.901,51.796,545.607,50.494z"/>
</g>
<g id="Layer_2">
	<g>
		<linearGradient id="SVGID_1_" gradientUnits="userSpaceOnUse" x1="531.5342" y1="133.999" x2="531.5342" y2="27.3138">
			<stop  offset="0" style="stop-color:#12705A"/>
			<stop  offset="1" style="stop-color:#1BBC9B"/>
		</linearGradient>
		<path fill-rule="evenodd" clip-rule="evenodd" fill="url(#SVGID_1_)" d="M569.633,66.257
			c-0.986-11.184-5.676-20.461-14.662-27.265c-3.618-2.74-8.473-2.254-10.332,0.734c-2.242,3.601-1.425,6.995,1.587,9.9
			c1.318,1.272,2.738,2.459,3.913,3.853c4.848,5.748,7.315,12.17,5.601,19.829c-2.235,9.982-11.269,18.249-21.565,19.569
			c-9.637,1.236-19.763-4.62-24.351-14.081c-4.525-9.331-2.491-19.533,5.462-27.381c0.83-0.818,1.717-1.583,2.497-2.447
			c2.554-2.824,3.003-6.133,0.867-9.147c-2.239-3.158-5.604-3.135-8.984-1.661c-2.188,0.954-3.881,2.56-5.515,4.222
			c-12.047,12.25-14.166,30.372-5.349,45.58c8.375,14.445,26.35,21.445,43.271,16.847c16.606-4.511,27.593-18.861,27.569-36.056
			C569.642,67.921,569.705,67.083,569.633,66.257z"/>
		<linearGradient id="SVGID_2_" gradientUnits="userSpaceOnUse" x1="531.2275" y1="133.999" x2="531.2275" y2="27.3138">
			<stop  offset="0" style="stop-color:#12705A"/>
			<stop  offset="1" style="stop-color:#1BBC9B"/>
		</linearGradient>
		<path fill-rule="evenodd" clip-rule="evenodd" fill="url(#SVGID_2_)" d="M532.646,75.994c0.332,0.021,0.664,0.035,0.996,0.049
			c8.073-0.119,9.364-1.649,8.242-9.52c-0.798-5.587-1.488-11.19-2.209-16.788c-1.08-8.401-2.174-16.801-3.203-25.208
			c-0.387-3.156-2.32-5.926-4.982-6.042c-2.811-0.123-4.709,2.643-4.814,5.876c-0.01,0.33-0.104,0.656-0.151,0.985
			c-1.772,12.148-3.496,24.303-5.328,36.442C519.182,75.143,519.139,75.136,532.646,75.994z"/>
		<linearGradient id="SVGID_3_" gradientUnits="userSpaceOnUse" x1="531.0449" y1="133.999" x2="531.0449" y2="27.3138">
			<stop  offset="0" style="stop-color:#12705A"/>
			<stop  offset="1" style="stop-color:#1BBC9B"/>
		</linearGradient>
		<path fill-rule="evenodd" clip-rule="evenodd" fill="url(#SVGID_3_)" d="M506.693,109.258c8.021,13.52,15.667,25.879,24.766,38.05
			c8.849-12.784,17.199-24.928,23.938-38.244C539.417,117.522,523.523,117.543,506.693,109.258z"/>
	</g>
	<g>
		<path fill="#FFFFFF" d="M6.832,67.793V13.452c0.05-1.766,0.833-3.405,2.346-4.919c1.463-1.412,3.001-2.119,4.617-2.119
			c0.101,0,0.201,0,0.303,0h0.605c0.151,0,0.328,0,0.53,0c0.757,0.051,1.514,0.227,2.271,0.528c0.958,0.404,1.766,0.983,2.422,1.739
			c0.655,0.757,1.198,1.602,1.627,2.533c0.428,0.932,0.644,1.928,0.644,2.986v22.905c3.936-2.66,7.883-4.454,11.845-5.384
			c3.96-0.929,7.379-1.393,10.255-1.393c4.851,0,9.589,0.916,14.213,2.749c4.624,1.833,8.857,4.557,12.698,8.17v-0.151
			c3.669,3.747,6.407,7.747,8.217,12s2.714,9.164,2.714,14.733c0,5.142-1.014,9.992-3.04,14.555
			c-2.027,4.563-4.749,8.544-8.168,11.946c-3.42,3.402-7.409,6.087-11.969,8.052c-4.56,1.966-9.398,2.948-14.514,2.948
			c-4.945,0-9.663-1.009-14.153-3.027c-4.491-2.018-8.49-4.73-11.996-8.136c-3.508-3.406-6.295-7.38-8.363-11.921
			C7.865,77.707,6.832,72.89,6.832,67.793z M22.195,67.831c0,3.094,0.592,5.998,1.778,8.711c1.185,2.712,2.813,5.083,4.882,7.111
			c2.068,2.029,4.439,3.639,7.114,4.831c2.674,1.191,5.499,1.787,8.477,1.787c2.977,0,5.839-0.596,8.59-1.787
			c2.75-1.192,5.134-2.802,7.152-4.831c2.018-2.028,3.62-4.386,4.806-7.074c1.185-2.688,1.779-5.604,1.779-8.748
			c0-2.992-0.594-5.869-1.779-8.634c-1.186-2.764-2.788-5.146-4.806-7.15c-2.019-2.003-4.39-3.612-7.114-4.83
			c-2.725-1.217-5.601-1.826-8.628-1.826c-2.978,0-5.803,0.634-8.477,1.901c-2.675,1.268-5.046,2.967-7.114,5.097
			c-2.069,2.131-3.697,4.54-4.882,7.227C22.788,62.304,22.195,65.042,22.195,67.831z"/>
		<path fill="#FFFFFF" d="M84.635,67.831c0-2.677,0.276-5.252,0.832-7.728c0.556-2.475,1.363-4.898,2.426-7.273
			c2.979-6.717,7.524-12.146,13.636-16.287c6.111-4.142,13.03-6.213,20.759-6.213c0.805,0,1.535,0,2.189,0
			c0.655,0,1.387,0.051,2.192,0.15c4.639,0.506,8.999,1.843,13.082,4.012c4.082,2.17,7.586,4.933,10.509,8.287
			c2.924,3.356,5.243,7.179,6.957,11.467c1.714,4.289,2.571,8.805,2.571,13.547v29.971c0,2.069-0.783,3.848-2.347,5.336
			c-1.564,1.488-3.305,2.232-5.222,2.232c-0.707,0-1.514-0.05-2.422-0.149c-0.908-0.099-1.767-0.387-2.573-0.861
			s-1.551-1.112-2.231-1.911c-0.682-0.8-1.072-1.923-1.173-3.373c-0.504,0.2-1.436,0.662-2.796,1.386
			c-1.36,0.726-2.343,1.237-2.947,1.536c-1.158,0.501-2.354,0.963-3.589,1.388s-2.506,0.836-3.814,1.235
			c-2.568,0.5-5.364,0.75-8.387,0.75c-7.779,0-14.711-2.091-20.797-6.274c-6.085-4.185-10.618-9.578-13.598-16.181
			c-1.012-2.269-1.808-4.662-2.388-7.183C84.924,73.175,84.635,70.553,84.635,67.831z M99.998,67.831
			c0,3.094,0.616,5.998,1.851,8.711c1.234,2.712,2.909,5.083,5.024,7.111c2.116,2.029,4.496,3.639,7.141,4.831
			c2.645,1.191,5.352,1.787,8.122,1.787c2.972,0,5.83-0.57,8.575-1.712c2.745-1.141,5.124-2.726,7.14-4.755
			c2.015-2.028,3.614-4.386,4.798-7.074c1.184-2.687,1.775-5.653,1.775-8.899c0-2.891-0.592-5.718-1.775-8.481
			s-2.809-5.147-4.874-7.151c-2.064-2.003-4.432-3.639-7.101-4.906c-2.671-1.268-5.516-1.901-8.538-1.901
			c-2.972,0-5.78,0.609-8.425,1.826c-2.645,1.218-5,2.854-7.064,4.906c-2.064,2.054-3.689,4.438-4.873,7.15
			C100.589,61.986,99.998,64.839,99.998,67.831z"/>
		<path fill="#FFFFFF" d="M164.404,97.764V67.339c0.101-5.146,1.132-9.99,3.094-14.531s4.591-8.526,7.886-11.958
			c3.295-3.431,7.205-6.117,11.732-8.061c4.526-1.941,9.456-2.914,14.79-2.914c4.969,0,9.749,0.896,14.338,2.688
			s8.595,4.289,12.019,7.492c3.423,3.205,6.174,7.027,8.253,11.467c2.079,4.44,3.119,9.259,3.119,14.455V97.31
			c0,2.069-0.753,3.822-2.256,5.26c-1.504,1.438-3.3,2.208-5.389,2.309c-2.09,0-3.898-0.669-5.427-2.008
			c-1.529-1.339-2.293-3.044-2.293-5.116V67.292c0-3.082-0.568-5.974-1.706-8.677s-2.717-5.065-4.739-7.086
			c-2.021-2.02-4.396-3.625-7.126-4.812c-2.729-1.188-5.71-1.781-8.944-1.781c-2.982,0-5.801,0.544-8.454,1.63
			c-2.654,1.085-4.979,2.614-6.975,4.584c-1.996,1.971-3.59,4.257-4.776,6.858c-1.188,2.602-1.781,5.394-1.781,8.373V97.3
			c0,2.072-0.774,3.854-2.323,5.343c-1.55,1.49-3.349,2.235-5.396,2.235s-3.835-0.668-5.358-2.006
			C165.166,101.536,164.404,99.833,164.404,97.764z"/>
		<path fill="#FFFFFF" d="M244.478,14.285c0-2.149,0.795-4.023,2.385-5.624c1.589-1.599,3.52-2.399,5.789-2.399
			c2.169,0,4.036,0.801,5.602,2.399c1.563,1.601,2.346,3.475,2.346,5.624c0,2.25-0.783,4.162-2.346,5.736
			c-1.565,1.575-3.433,2.361-5.602,2.361c-2.27,0-4.2-0.786-5.789-2.361C245.272,18.447,244.478,16.535,244.478,14.285z
			 M244.478,97.082V38.807c0-2.271,0.795-4.175,2.385-5.715c1.589-1.538,3.52-2.309,5.789-2.309c2.068,0,3.91,0.771,5.525,2.309
			c1.614,1.54,2.422,3.443,2.422,5.715v58.275c0,2.373-0.808,4.341-2.422,5.904c-1.615,1.564-3.457,2.346-5.525,2.346
			c-2.27,0-4.2-0.769-5.789-2.309C245.272,101.485,244.478,99.504,244.478,97.082z"/>
		<path fill="#FFFFFF" d="M265.519,123.799c0-2.069,0.754-3.859,2.266-5.373c1.511-1.514,3.315-2.322,5.416-2.422h41.001
			c1.562,0,3.187-0.379,4.874-1.136s3.123-1.867,4.307-3.33c1.184-1.464,1.901-3.179,2.153-5.146c0.05-0.354,0.075-0.707,0.075-1.06
			c0-1.665-0.503-3.481-1.511-5.449c-1.864,0.908-3.603,1.729-5.214,2.46c-1.612,0.731-3.211,1.313-4.798,1.74
			c-1.587,0.43-3.262,0.745-5.024,0.946c-1.764,0.202-3.728,0.303-5.893,0.303c-5.527,0-10.6-0.935-15.214-2.803
			s-8.583-4.457-11.903-7.766c-3.322-3.308-5.908-7.26-7.759-11.856c-1.853-4.596-2.776-9.646-2.776-15.152
			c0-5.04,1.039-9.829,3.118-14.365s4.855-8.505,8.33-11.907c3.473-3.402,7.466-6.111,11.979-8.128s9.255-3.024,14.226-3.024
			c5.141,0,9.991,0.983,14.554,2.949c4.563,1.965,8.519,4.649,11.87,8.052s6.011,7.372,7.977,11.908
			c1.965,4.536,2.949,9.375,2.949,14.516c0,6.823-1.867,13.672-5.601,20.545c3.733,4.945,5.601,10.472,5.601,16.578
			c0,3.531-0.644,6.836-1.929,9.915c-1.287,3.076-3.064,5.814-5.332,8.211c-2.27,2.396-4.954,4.339-8.055,5.828
			c-3.101,1.487-6.466,2.333-10.097,2.535h-42.755c-1.873,0-3.481-0.745-4.822-2.232
			C266.188,127.646,265.519,125.867,265.519,123.799z M280.882,67.755c0,2.881,0.566,5.674,1.699,8.378s2.707,5.117,4.722,7.24
			c2.016,2.123,4.37,3.803,7.065,5.041c2.694,1.238,5.629,1.857,8.803,1.857c3.173,0,6.157-0.619,8.953-1.857
			c2.795-1.238,5.175-2.894,7.14-4.965c1.965-2.072,3.514-4.448,4.646-7.128c1.133-2.678,1.7-5.534,1.7-8.566
			c0-2.981-0.617-5.849-1.852-8.604c-1.234-2.754-2.909-5.13-5.024-7.126s-4.521-3.601-7.215-4.813
			c-2.695-1.214-5.478-1.82-8.349-1.82s-5.655,0.633-8.349,1.896c-2.695,1.263-5.063,2.932-7.103,5.004
			c-2.04,2.071-3.689,4.447-4.949,7.126C281.511,62.096,280.882,64.874,280.882,67.755z"/>
		<path fill="#FFFFFF" d="M345.44,98.218V13.074c0.406-1.766,1.26-3.343,2.56-4.73s2.994-2.082,5.084-2.082
			c1.885,0,3.554,0.731,5.006,2.19s2.356,3.272,2.714,5.437v24.087c4.332-2.747,8.425-4.657,12.277-5.731s7.241-1.611,10.163-1.611
			c5.04,0,9.829,0.934,14.365,2.8c4.536,1.867,8.505,4.453,11.907,7.758s6.111,7.178,8.128,11.617
			c2.017,4.44,3.024,9.184,3.024,14.229v30.879c0,2.069-0.744,3.848-2.232,5.336s-3.318,2.282-5.486,2.384
			c-1.969,0-3.646-0.695-5.033-2.086c-1.389-1.391-2.259-3.124-2.611-5.198v-30.35c0-2.984-0.567-5.816-1.7-8.498
			c-1.133-2.681-2.669-5.058-4.608-7.132s-4.282-3.705-7.027-4.895c-2.746-1.188-5.653-1.783-8.726-1.783
			c-2.974,0-5.73,0.544-8.274,1.632s-4.822,2.579-6.838,4.476c-2.015,1.897-3.665,4.148-4.949,6.754s-2.077,5.399-2.379,8.383
			v30.957c0,2.074-0.739,3.857-2.218,5.351c-1.478,1.492-3.362,2.288-5.655,2.39c-1.784,0-3.351-0.719-4.701-2.157
			C346.879,102.04,345.948,100.287,345.44,98.218z"/>
		<path fill="#FFFFFF" d="M423.999,67.036V14.512c0-2.068,0.737-3.985,2.212-5.752c1.475-1.766,3.387-2.648,5.736-2.648
			c2.249,0,4.124,0.813,5.623,2.438c1.5,1.626,2.349,3.633,2.55,6.02v14.021h35.924c2.176,0,3.986,0.801,5.429,2.399
			c1.443,1.599,2.165,3.424,2.165,5.472c0,2.05-0.771,3.886-2.316,5.511c-1.544,1.625-3.304,2.436-5.277,2.436H440.12v22.555
			c0,2.967,0.567,5.82,1.703,8.562c1.135,2.741,2.711,5.142,4.73,7.203c2.017,2.062,4.389,3.708,7.113,4.94s5.65,1.848,8.779,1.848
			c3.531,0,6.51-0.489,8.932-1.471c2.422-0.98,4.541-2.351,6.357-4.11h-0.152c1.514-1.407,3.355-2.112,5.525-2.112
			c0.05,0,0.125,0,0.227,0c2.169,0,4.088,0.755,5.752,2.264c1.463,1.357,2.195,3.168,2.195,5.43c0,0.816-0.14,1.669-0.416,2.561
			c-0.278,0.892-0.771,1.669-1.477,2.331h0.152c-3.633,3.566-7.595,6.279-11.883,8.139c-4.289,1.858-8.957,2.788-14.002,2.788
			c-5.349,0-10.432-0.908-15.25-2.725s-8.992-4.401-12.519-7.758c-3.527-3.354-6.365-7.379-8.516-12.071
			C425.224,78.086,424.099,72.839,423.999,67.036z"/>
	</g>
	<g>
		<path fill="#FFFFFF" d="M573.013,97.643V67.218c0.101-5.146,1.132-9.99,3.094-14.531s4.59-8.526,7.885-11.958
			c3.295-3.431,7.205-6.117,11.732-8.061c4.527-1.941,9.457-2.914,14.791-2.914c4.969,0,9.748,0.896,14.338,2.688
			c4.588,1.791,8.594,4.289,12.018,7.492c3.424,3.205,6.174,7.027,8.254,11.467c2.078,4.44,3.119,9.259,3.119,14.455v31.333
			c0,2.069-0.754,3.822-2.256,5.26c-1.504,1.438-3.301,2.208-5.389,2.309c-2.09,0-3.898-0.669-5.428-2.008s-2.293-3.044-2.293-5.116
			V67.171c0-3.082-0.568-5.974-1.705-8.677c-1.139-2.703-2.717-5.065-4.74-7.086c-2.021-2.02-4.396-3.625-7.125-4.812
			c-2.73-1.188-5.711-1.781-8.945-1.781c-2.982,0-5.801,0.544-8.453,1.63c-2.654,1.085-4.979,2.614-6.976,4.584
			c-1.996,1.971-3.589,4.257-4.776,6.858s-1.781,5.394-1.781,8.373v30.918c0,2.072-0.773,3.854-2.323,5.343
			c-1.55,1.49-3.348,2.235-5.396,2.235c-2.049,0-3.836-0.668-5.359-2.006C573.774,101.415,573.013,99.712,573.013,97.643z"/>
	</g>
</g>
<g id="Layer_3" display="none">
	<g display="inline">
		<path fill-rule="evenodd" clip-rule="evenodd" fill="#1CB696" d="M508.725,77.32c7.426,12.745,17.041,17.727,28.679,14.976
			c5.759-1.361,9.859-5.142,13.864-9.116c3.06-1.854,6.402-1.58,9.665-1.023c4.092,0.697,4.647,2.15,2.723,6.099
			c-7.615,12.836-21.938,19.885-36.249,17.838c-15.97-2.284-28.24-12.234-31.752-25.75c-1.054-2.355,0.449-3.489,2.273-3.958
			C501.585,75.441,505.343,74.567,508.725,77.32z"/>
		<path fill-rule="evenodd" clip-rule="evenodd" fill="#1CB696" d="M555.968,109.589c-4.75,7.66-9.431,15.364-14.276,22.963
			c-2.672,4.19-5.604,8.217-8.454,12.292c-0.772,1.104-1.35,3.094-3.084,0.701c-8.243-11.367-15.723-23.21-23.297-36.257
			C523.699,117.625,539.592,117.467,555.968,109.589z"/>
		<path fill-rule="evenodd" clip-rule="evenodd" fill="#1CB696" d="M508.725,77.32c-3.163-0.019-6.284-0.673-9.503-0.072
			c-2.013,0.376-3.379,0.895-3.566,3.096c-5.133-13.429-1.067-29.364,10.055-39.396c0.979-0.884,1.967-1.756,2.951-2.633
			c3.75-1.147,7.794-2.298,10.251,1.846c2.578,4.346,0.346,7.838-3.112,10.836C507.549,58.154,506.395,67.285,508.725,77.32z"/>
		<path fill-rule="evenodd" clip-rule="evenodd" fill="#1CB696" d="M563.656,88.255c1.312-3.404-0.099-4.87-3.502-4.923
			c-2.962-0.046-5.924-0.102-8.886-0.152c4.478-6.309,6.185-13.2,4.374-20.829c0.39-4.504,3.437-5.91,7.348-6.258
			c3.769-0.336,5.118,2.058,5.761,5.208C570.82,70.999,569.941,80.138,563.656,88.255z"/>
		<path fill-rule="evenodd" clip-rule="evenodd" fill="#1CB696" d="M568.751,61.302c-3.786-6.072-7.738-5.755-13.108,1.049
			c-2.229-4.795-4.977-9.207-9.186-12.562c-3.128-2.493-3.239-5.851-2.606-9.401c4.45-3.917,7.99-4.285,12.367-0.586
			C562.889,45.441,567.373,52.504,568.751,61.302z"/>
		<path fill-rule="evenodd" clip-rule="evenodd" fill="#1CB696" d="M538.852,46.256c2.011,8.239,2.431,16.717,3.764,25.058
			c0.317,1.986-0.368,2.825-2.383,3.497c-6.316,2.106-12.498,0.483-18.732-0.147c-1.489-0.15-1.995-0.901-1.768-2.321
			c1.278-8.014,2.543-16.029,3.813-24.045c1.884-2.681,4.537-3.862,7.28-1.998C533.754,48.29,536.207,44.751,538.852,46.256z"/>
		<path fill-rule="evenodd" clip-rule="evenodd" fill="#1CB696" d="M538.852,46.256c-3.213,1.74-6.196,3.549-9.906,0.455
			c-1.57-1.31-3.542,1.093-5.4,1.586c1.132-8.524,2.082-17.08,3.505-25.555c0.438-2.608,2.414-4.69,5.646-4.49l0.046,0.043
			c2.806,2.615,3.929,5.79,4.188,9.668C537.338,34.073,538.918,40.079,538.852,46.256z"/>
	</g>
</g>
</svg>
