<?xml version="1.0" encoding="utf-8"?>
<!-- Generator: Adobe Illustrator 16.0.0, SVG Export Plug-In . SVG Version: 6.00 Build 0)  -->
<!DOCTYPE svg PUBLIC "-//W3C//DTD SVG 1.1//EN" "http://www.w3.org/Graphics/SVG/1.1/DTD/svg11.dtd">
<svg version="1.1" xmlns="http://www.w3.org/2000/svg" xmlns:xlink="http://www.w3.org/1999/xlink" x="0px" y="0px" width="93px"
	 height="137.975px" viewBox="0 0 93 137.975" enable-background="new 0 0 93 137.975" xml:space="preserve">
<g id="Layer_1" display="none">
	<path display="inline" fill-rule="evenodd" clip-rule="evenodd" fill="#1BBB9A" d="M70.34,28.871
		c21.647,15.396,21.117,48.15-2.471,63.105c-15.352,9.732-36.106,7.305-48.989-5.894C6.006,72.893,4.18,53.26,14.388,38.009
		c2.618-3.912,6.179-6.904,9.604-10.032c4.896-2.929,8.092-2.551,11.419,1.351c2.655,3.112,2.525,7.888-0.86,11.291
		c-4.953,4.979-8.886,10.353-9.217,17.667c-0.433,9.572,5.303,18.416,13.936,21.537c9.586,3.466,19.374,0.655,25.407-7.303
		c1.305-1.722,2.331-3.646,3.81-5.246c6.282-6.976,4.77-15.031,2.721-22.875c-0.892-3.415-2.589-6.732-4.516-9.874
		C64.453,30.875,65.78,29.061,70.34,28.871z"/>
	<path display="inline" fill-rule="evenodd" clip-rule="evenodd" fill="#1CBB9B" d="M48.087,7.971
		c3.632,3.074,4.854,7.053,5.378,11.735c1.533,13.703,3.433,27.368,5.404,41.017c0.533,3.691-0.426,5.127-4.219,6.053
		c-6.427,1.567-12.548,0.012-18.774-0.594c-2.988-0.291-1.823-2.615-1.593-4.263c2.318-16.607,4.68-33.208,7.03-49.812
		C43.633,10.83,44.597,7.331,48.087,7.971z"/>
	<path display="inline" fill-rule="evenodd" clip-rule="evenodd" fill="#1BBB9B" d="M20.175,95.405
		c15.827,9.136,31.854,9.848,48.401,2.605c0.86-0.377,1.936-1.957,3.02-0.569c1.035,1.325-0.254,2.611-0.85,3.618
		c-7.341,12.405-15.084,24.554-23.915,36.865C36.691,124.235,27.855,110.251,20.175,95.405z"/>
	<path display="inline" fill-rule="evenodd" clip-rule="evenodd" fill="#1CBB9B" d="M61.94,41.161
		c-4.656-2.732-4.753-6.721-3.087-11.197c3.578-2.993,7.295-4.529,11.485-1.093c-3.739,0.718-4.732,2.25-2.301,5.732
		c6.191,8.863,7.466,18.663,4.891,29.072c-0.524,2.12-1.815,3.446-3.744,4.274c2.967-8.227,1.237-15.764-3.36-22.879
		c1.26-3.977,0.466-7.428-2.667-10.609C61.889,36.73,64.15,39.385,61.94,41.161z"/>
	<path display="inline" fill-rule="evenodd" clip-rule="evenodd" fill="#1BBB9A" d="M61.94,41.161
		c0.446-2.219-0.757-4.204-0.893-6.33c-0.103-1.614,0.146-3.283,2.426-2.417c3.457,1.313,4.979,9.815,2.351,12.655
		C64.529,43.767,63.234,42.463,61.94,41.161z"/>
</g>
<g id="Layer_2">
	<g>
		<linearGradient id="SVGID_1_" gradientUnits="userSpaceOnUse" x1="47.8672" y1="124.666" x2="47.8672" y2="17.9808">
			<stop  offset="0" style="stop-color:#12705A"/>
			<stop  offset="1" style="stop-color:#1BBC9B"/>
		</linearGradient>
		<path fill-rule="evenodd" clip-rule="evenodd" fill="url(#SVGID_1_)" d="M85.966,56.924C84.979,45.74,80.29,36.463,71.304,29.659
			c-3.618-2.74-8.473-2.254-10.332,0.734c-2.242,3.601-1.425,6.995,1.587,9.9c1.318,1.272,2.738,2.459,3.913,3.853
			c4.848,5.748,7.315,12.17,5.601,19.829c-2.235,9.982-11.269,18.249-21.565,19.569c-9.637,1.236-19.763-4.62-24.351-14.081
			c-4.525-9.331-2.491-19.533,5.462-27.381c0.83-0.818,1.717-1.583,2.497-2.447c2.554-2.824,3.003-6.133,0.867-9.147
			c-2.239-3.158-5.604-3.135-8.984-1.661c-2.188,0.954-3.881,2.56-5.515,4.222c-12.047,12.25-14.166,30.372-5.349,45.58
			c8.375,14.445,26.35,21.445,43.271,16.847c16.606-4.511,27.593-18.861,27.569-36.056C85.975,58.588,86.038,57.75,85.966,56.924z"
			/>
		<linearGradient id="SVGID_2_" gradientUnits="userSpaceOnUse" x1="47.5605" y1="124.666" x2="47.5605" y2="17.9808">
			<stop  offset="0" style="stop-color:#12705A"/>
			<stop  offset="1" style="stop-color:#1BBC9B"/>
		</linearGradient>
		<path fill-rule="evenodd" clip-rule="evenodd" fill="url(#SVGID_2_)" d="M48.979,66.661c0.332,0.021,0.664,0.035,0.996,0.049
			c8.073-0.119,9.364-1.649,8.242-9.52C57.42,51.604,56.729,46,56.009,40.403c-1.08-8.401-2.174-16.801-3.203-25.208
			c-0.387-3.156-2.32-5.926-4.982-6.042c-2.811-0.123-4.709,2.643-4.814,5.876c-0.01,0.33-0.104,0.656-0.151,0.985
			c-1.772,12.148-3.496,24.303-5.328,36.442C35.515,65.81,35.472,65.803,48.979,66.661z"/>
		<linearGradient id="SVGID_3_" gradientUnits="userSpaceOnUse" x1="47.3779" y1="124.666" x2="47.3779" y2="17.9808">
			<stop  offset="0" style="stop-color:#12705A"/>
			<stop  offset="1" style="stop-color:#1BBC9B"/>
		</linearGradient>
		<path fill-rule="evenodd" clip-rule="evenodd" fill="url(#SVGID_3_)" d="M23.026,99.925c8.021,13.52,15.667,25.879,24.766,38.05
			c8.849-12.784,17.199-24.928,23.938-38.244C55.75,108.189,39.856,108.21,23.026,99.925z"/>
	</g>
</g>
<g id="Layer_3" display="none">
	<g display="inline">
		<path fill-rule="evenodd" clip-rule="evenodd" fill="#1CB696" d="M25.058,67.987c7.426,12.745,17.041,17.727,28.679,14.976
			c5.759-1.361,9.859-5.142,13.864-9.116c3.06-1.854,6.402-1.58,9.665-1.023c4.092,0.697,4.647,2.15,2.723,6.099
			c-7.615,12.836-21.938,19.885-36.249,17.838c-15.97-2.284-28.24-12.234-31.752-25.75c-1.054-2.355,0.449-3.489,2.273-3.958
			C17.918,66.108,21.676,65.234,25.058,67.987z"/>
		<path fill-rule="evenodd" clip-rule="evenodd" fill="#1CB696" d="M72.301,100.256c-4.75,7.66-9.431,15.364-14.276,22.963
			c-2.672,4.19-5.604,8.217-8.454,12.292c-0.772,1.104-1.35,3.094-3.084,0.701c-8.243-11.367-15.723-23.21-23.297-36.257
			C40.032,108.292,55.925,108.134,72.301,100.256z"/>
		<path fill-rule="evenodd" clip-rule="evenodd" fill="#1CB696" d="M25.058,67.987c-3.163-0.019-6.284-0.673-9.503-0.072
			c-2.013,0.376-3.379,0.895-3.566,3.096c-5.133-13.429-1.067-29.364,10.055-39.396c0.979-0.884,1.967-1.756,2.951-2.633
			c3.75-1.147,7.794-2.298,10.251,1.846c2.578,4.346,0.346,7.838-3.112,10.836C23.882,48.821,22.728,57.952,25.058,67.987z"/>
		<path fill-rule="evenodd" clip-rule="evenodd" fill="#1CB696" d="M79.989,78.922c1.312-3.404-0.099-4.87-3.502-4.923
			c-2.962-0.046-5.924-0.102-8.886-0.152c4.478-6.309,6.185-13.2,4.374-20.829c0.39-4.504,3.437-5.91,7.348-6.258
			c3.769-0.336,5.118,2.058,5.761,5.208C87.153,61.666,86.274,70.805,79.989,78.922z"/>
		<path fill-rule="evenodd" clip-rule="evenodd" fill="#1CB696" d="M85.084,51.969c-3.786-6.072-7.738-5.755-13.108,1.049
			c-2.229-4.795-4.977-9.207-9.186-12.562c-3.128-2.493-3.239-5.851-2.606-9.401c4.45-3.917,7.99-4.285,12.367-0.586
			C79.222,36.108,83.706,43.171,85.084,51.969z"/>
		<path fill-rule="evenodd" clip-rule="evenodd" fill="#1CB696" d="M55.185,36.923c2.011,8.239,2.431,16.717,3.764,25.058
			c0.317,1.986-0.368,2.825-2.383,3.497c-6.316,2.106-12.498,0.483-18.732-0.147c-1.489-0.15-1.995-0.901-1.768-2.321
			c1.278-8.014,2.543-16.029,3.813-24.045c1.884-2.681,4.537-3.862,7.28-1.998C50.087,38.957,52.54,35.418,55.185,36.923z"/>
		<path fill-rule="evenodd" clip-rule="evenodd" fill="#1CB696" d="M55.185,36.923c-3.213,1.74-6.196,3.549-9.906,0.455
			c-1.57-1.31-3.542,1.093-5.4,1.586c1.132-8.524,2.082-17.08,3.505-25.555c0.438-2.608,2.414-4.69,5.646-4.49l0.046,0.043
			c2.806,2.615,3.929,5.79,4.188,9.668C53.671,24.74,55.251,30.746,55.185,36.923z"/>
	</g>
</g>
</svg>
