<?xml version="1.0" encoding="utf-8"?>
<!-- Generator: Adobe Illustrator 16.0.0, SVG Export Plug-In . SVG Version: 6.00 Build 0)  -->
<!DOCTYPE svg PUBLIC "-//W3C//DTD SVG 1.1//EN" "http://www.w3.org/Graphics/SVG/1.1/DTD/svg11.dtd">
<svg version="1.1" id="Layer_1" xmlns="http://www.w3.org/2000/svg" xmlns:xlink="http://www.w3.org/1999/xlink" x="0px" y="0px"
	 width="62.667px" height="76px" viewBox="0 0 62.667 76" enable-background="new 0 0 62.667 76" xml:space="preserve">
<path fill-rule="evenodd" clip-rule="evenodd" fill="#F4831E" d="M55.335,26.744c-0.407-3.22-1.55-6.257-3.295-9.012
	c-2.394-3.778-5.541-6.746-9.538-8.846C38.915,7,35.099,6.138,31.11,6.079c-1.585-0.024-3.197,0.25-4.786,0.584
	c-2.356,0.497-4.575,1.318-6.67,2.463c-3.021,1.652-5.566,3.876-7.667,6.621c-3.287,4.295-4.844,9.169-5,14.616
	c-0.098,1.169,0.16,2.408,0.331,3.621c0.483,3.425,1.563,6.707,3.002,9.854c1.736,3.801,3.887,7.366,6.303,10.775
	c2.039,2.876,4.246,5.618,6.582,8.256c2.449,2.767,5.015,5.421,7.757,7.9c0.262,0.237,0.441,0.26,0.711,0.009
	c1.065-0.995,2.172-1.946,3.224-2.957c3.04-2.92,5.88-6.022,8.51-9.321c2.551-3.199,4.872-6.55,6.864-10.123
	c1.585-2.841,2.913-5.803,3.844-8.923c0.673-2.255,1.078-4.559,1.365-6.913C55.721,30.564,55.575,28.641,55.335,26.744z
	 M48.598,39.38c-2.156,6.521-6.004,11.995-10.605,16.999c-1.915,2.083-3.953,4.032-6.103,5.869
	c-0.438,0.374-0.701,0.361-1.126-0.017c-4.134-3.68-7.853-7.737-11.043-12.259c-2.188-3.102-4.063-6.389-5.363-9.975
	c-1.076-2.965-1.742-6.02-1.646-9.186c0.143-4.703,1.36-9.066,4.418-12.765c2.537-3.069,5.796-4.96,9.686-5.772
	c3.158-0.659,6.33-0.672,9.456,0.089c5.323,1.295,9.21,4.44,11.598,9.393c1.351,2.802,1.96,5.779,2.041,8.877
	C49.995,33.626,49.535,36.545,48.598,39.38z"/>
<path fill-rule="evenodd" clip-rule="evenodd" fill="#E77020" d="M36.863,34.618c0.876,0.051,1.606,0.318,2.181,0.876
	c1.72,1.674,3.446,3.343,5.106,5.076c0.848,0.884,1.145,1.967,0.647,3.188c-0.509,1.253-1.486,1.871-2.759,1.996
	c-0.819,0.081-1.599-0.239-2.191-0.812c-1.761-1.7-3.521-3.402-5.212-5.169c-0.902-0.943-1.09-2.111-0.516-3.334
	C34.678,35.25,35.682,34.741,36.863,34.618z"/>
<path fill-rule="evenodd" clip-rule="evenodd" fill="#E77020" d="M26.347,16.249c-5.845-0.004-10.845,4.954-10.839,10.745
	c0.007,5.807,4.984,10.729,10.849,10.729c5.887-0.001,10.811-4.893,10.808-10.739C37.161,21.14,32.237,16.253,26.347,16.249z
	 M26.313,33.881c-3.938-0.006-6.897-2.988-6.898-6.956c-0.001-3.862,3.023-6.837,6.95-6.836c3.905,0.001,6.953,3.004,6.953,6.851
	C33.316,30.905,30.308,33.887,26.313,33.881z"/>
</svg>
