<?xml version="1.0" encoding="utf-8"?>
<!-- Generator: Adobe Illustrator 16.0.0, SVG Export Plug-In . SVG Version: 6.00 Build 0)  -->
<!DOCTYPE svg PUBLIC "-//W3C//DTD SVG 1.1//EN" "http://www.w3.org/Graphics/SVG/1.1/DTD/svg11.dtd">
<svg version="1.1" id="Layer_1" xmlns="http://www.w3.org/2000/svg" xmlns:xlink="http://www.w3.org/1999/xlink" x="0px" y="0px"
	 width="204px" height="254px" viewBox="0 0 204 254" enable-background="new 0 0 204 254" xml:space="preserve">
<path fill-rule="evenodd" clip-rule="evenodd" fill="#1bbc9b" d="M11.975,58.966c-0.888,4.522-1.238,9.143-2.488,13.599
	c0-1.135,0-2.27,0-3.405c0.485-2.543,0.957-5.089,1.462-7.629C11.129,60.619,11.142,59.624,11.975,58.966z"/>
<path fill-rule="evenodd" clip-rule="evenodd" fill="#1bbc9b" d="M31.117,135.317c5.42,3.504,10.501,6.465,16.02,8.588
	c0.227,0.087,0.443,0.237,0.676,0.269c5.082,0.689,7.304,4.163,9.321,8.508c6.024,12.976,14.25,24.579,23.324,35.599
	c8.302,10.081,17.338,19.451,27.055,28.173c2.627,2.357,2.588,2.387,5.296,0.089c11.14-9.448,21.325-19.828,30.367-31.304
	c1.324-1.681,2.074-1.772,3.59-0.174c3.23,3.408,6.679,6.612,10.102,9.832c0.943,0.888,1.075,1.479,0.234,2.576
	c-11.677,15.246-24.396,29.538-38.57,42.518c-2.325,2.13-4.57,4.342-6.983,6.384c-1.146,0.968-1.729,0.882-2.793-0.072
	c-9.289-8.327-17.917-17.305-26.19-26.623c-8.141-9.17-15.849-18.69-22.917-28.728c-9.148-12.991-17.291-26.545-23.45-41.227
	C34.295,145.188,32.547,140.591,31.117,135.317z"/>
<path fill-rule="evenodd" clip-rule="evenodd" fill="#1bbc9b" d="M188.528,169.806c-0.776,9.398-5.739,16.052-14.495,18.67
	c-6.727,2.011-12.537-0.155-17.184-4.499c-10.584-9.896-20.848-20.149-30.953-30.539c-5.286-5.435-7.033-12.111-4.15-19.476
	c2.799-7.149,8.295-11.032,15.727-12.072c5.646-0.791,10.672,1.267,14.651,5.093c10.333,9.933,20.482,20.059,30.6,30.212
	C186.318,160.801,188.101,165.357,188.528,169.806z"/>
<path fill-rule="evenodd" clip-rule="evenodd" fill="#1bbc9b" d="M133.076,27.605c5.476,1.233,10.028,3.297,14.478,5.518
	c9.101,4.542,17.089,10.62,23.993,18.108c9.002,9.762,15.288,21.049,19.047,33.765c2.226,7.529,3.279,15.323,3.093,23.067
	c-0.173,7.152-0.905,14.353-2.715,21.426c-1.311,5.124-2.763,10.184-4.363,15.214c-0.559,1.757-1.113,2.402-2.743,0.663
	c-3.601-3.842-7.39-7.509-11.15-11.197c-1.015-0.993-1.341-1.852-0.989-3.387c2.838-12.375,3.228-24.783,0.53-37.285
	c-2.827-13.101-8.651-24.472-18.415-33.741c-0.411-0.391-0.759-0.893-1.238-1.159c-4.99-2.762-7.247-7.313-9.016-12.523
	c-2.035-5.996-5.374-11.414-9.268-16.445C133.934,29.13,133.651,28.551,133.076,27.605z"/>
<path fill-rule="evenodd" clip-rule="evenodd" fill="#1bbc9b" d="M137.232,54.864C127.234,24.423,93.72,5.558,63.887,11.698
	c-14.18,2.918-26.352,9.17-36.34,19.597c-7.542,7.873-12.414,17.303-15.572,27.67c-1.491,4.412-1.619,9.073-2.488,13.599
	c0,2.271,0,4.541,0,6.811c0.621,0.815,0.697,1.804,0.792,2.755c0.591,5.917,2.045,11.612,4.297,17.11
	c11.566,28.245,40.438,45.006,70.504,40.274c17.828-2.806,32.675-11.35,43.195-26.323C140.843,95.303,144.144,75.909,137.232,54.864
	z M74.695,117.345c-21.829-0.259-42.445-18.59-41.424-42.085c-1.021-21.697,18.435-41.6,41.823-41.689
	c23.62-0.09,42.103,19.463,42.484,40.733C118.032,99.681,97.022,117.61,74.695,117.345z"/>
<path fill-rule="evenodd" clip-rule="evenodd" fill="#1bbc9b" d="M46.953,98.502c-5.458-6.491-8.173-13.592-8.739-21.58
	c-0.697-9.864,3.281-17.697,9.688-24.988c7.604-8.652,16.506-13.59,28.176-12.898c6.507,0.386,12.506,2.318,18.232,6.161
	C66.704,52.44,52.029,70.9,46.953,98.502z"/>
</svg>
