<?xml version="1.0" encoding="utf-8"?>
<!-- Generator: Adobe Illustrator 16.0.0, SVG Export Plug-In . SVG Version: 6.00 Build 0)  -->
<!DOCTYPE svg PUBLIC "-//W3C//DTD SVG 1.1//EN" "http://www.w3.org/Graphics/SVG/1.1/DTD/svg11.dtd">
<svg version="1.1" xmlns="http://www.w3.org/2000/svg" xmlns:xlink="http://www.w3.org/1999/xlink" x="0px" y="0px"
	 width="609.664px" height="71.522px" viewBox="0 0 609.664 71.522" enable-background="new 0 0 609.664 71.522"
	 xml:space="preserve">
<g id="Layer_2">
</g>
<g id="Layer_1">
	<path fill="#0D0B0D" d="M-1.991,10.87c0.083,7.479-0.264,14.908-0.446,22.381C-2.743,45.77-3.282,58.894-2.2,71.522h615.857
		c-0.931-14.076-0.585-28.079-0.323-42.167c0.173-9.309-0.412-18.593,0.16-27.832c-0.743-0.234-1.476-0.503-2.184-0.851
		c-0.576-0.283-1.028-0.631-1.399-1.012c-0.197,0.126-0.404,0.243-0.63,0.339h0.383l-1.078,0.231
		c-0.119,0.03-0.241,0.057-0.366,0.079L305.46,65.218L1.255,0H1.86C1.208-0.154,0.643-0.423,0.169-0.783
		C-0.432-0.991-1.044-1.19-1.659-1.388C-1.425,2.667-2.036,6.838-1.991,10.87z"/>
</g>
</svg>
